<svg width="193" height="67" fill="none" xmlns="http://www.w3.org/2000/svg"><path d="M84.945 40.42c-3.523 0-6.498-1.19-8.925-3.57-2.38-2.38-3.57-5.413-3.57-9.1 0-3.663 1.19-6.685 3.57-9.065 2.403-2.403 5.401-3.605 8.995-3.605 3.103 0 5.693.782 7.77 2.345v2.625c-2.263-1.703-4.807-2.555-7.63-2.555-2.87 0-5.273.968-7.21 2.905-1.913 1.913-2.87 4.375-2.87 7.385 0 2.963.945 5.413 2.835 7.35 1.913 1.913 4.258 2.87 7.035 2.87 2.94 0 5.262-.852 6.965-2.555v-9.52h2.555v10.535c-1.074 1.213-2.45 2.182-4.13 2.905-1.657.7-3.453 1.05-5.39 1.05zm21.044-2.275a7.207 7.207 0 003.325-.805c1.05-.537 1.902-1.213 2.555-2.03v-2.345c-1.726-1.12-3.558-1.68-5.495-1.68-1.54 0-2.765.303-3.675.91-.886.607-1.33 1.435-1.33 2.485 0 1.097.432 1.948 1.295 2.555.864.607 1.972.91 3.325.91zm-.7 2.275c-1.796 0-3.325-.49-4.585-1.47-1.236-1.027-1.855-2.403-1.855-4.13 0-1.703.654-3.068 1.96-4.095 1.307-1.003 2.964-1.505 4.97-1.505 2.194 0 4.224.548 6.09 1.645v-1.68c0-2.823-1.855-4.235-5.565-4.235-1.983 0-3.826.572-5.53 1.715v-2.45c1.657-1.027 3.675-1.54 6.055-1.54 2.31 0 4.142.548 5.495 1.645 1.377 1.073 2.065 2.613 2.065 4.62v6.965c0 .653.14 1.167.42 1.54.304.373.7.56 1.19.56.374 0 .7-.07.98-.21v1.96c-.373.257-.933.385-1.68.385-.84 0-1.551-.222-2.135-.665-.56-.467-.91-1.143-1.05-2.03-1.703 1.983-3.978 2.975-6.825 2.975zm19.662 0c-1.167 0-2.112-.338-2.835-1.015-.7-.677-1.05-1.727-1.05-3.15V15.5h2.52v20.16c0 1.657.735 2.485 2.205 2.485.583 0 1.131-.152 1.645-.455v2.24c-.607.327-1.435.49-2.485.49zm10.219 0c-1.166 0-2.111-.338-2.835-1.015-.7-.677-1.05-1.727-1.05-3.15V15.5h2.52v20.16c0 1.657.735 2.485 2.205 2.485a3.18 3.18 0 001.645-.455v2.24c-.606.327-1.435.49-2.485.49zm14.42 0c-2.637 0-4.853-.828-6.65-2.485-1.773-1.633-2.66-3.757-2.66-6.37 0-2.52.793-4.632 2.38-6.335 1.61-1.703 3.675-2.555 6.195-2.555 1.353 0 2.555.28 3.605.84 1.05.537 1.878 1.248 2.485 2.135a10.23 10.23 0 011.365 2.835c.303.98.455 1.972.455 2.975v.7H142.87c.14 1.82.863 3.278 2.17 4.375 1.33 1.073 3.01 1.61 5.04 1.61 1.96 0 3.768-.525 5.425-1.575v2.24c-1.377 1.073-3.348 1.61-5.915 1.61zm-6.685-10.325h11.305c-.07-1.307-.56-2.485-1.47-3.535-.863-1.073-2.193-1.61-3.99-1.61-1.68 0-3.057.513-4.13 1.54-1.05 1.05-1.622 2.252-1.715 3.605zM164.02 40h-2.52V23.095h2.52v3.22c.63-1.097 1.564-1.972 2.8-2.625a8.05 8.05 0 013.92-1.015v2.555c-.77 0-1.47.105-2.1.315a7.02 7.02 0 00-2.835 1.47c-.816.677-1.411 1.447-1.785 2.31V40zm12.644 7.14c-1.213 0-2.112-.163-2.695-.49v-2.345c.723.373 1.493.56 2.31.56 1.027 0 1.913-.432 2.66-1.295.747-.84 1.528-2.24 2.345-4.2l-7.525-16.275h2.8l5.985 13.3 5.81-13.3h2.73l-8.365 18.795c-1.517 3.5-3.535 5.25-6.055 5.25z" fill="#FAFAFA"/><path stroke="#FAFAFA" stroke-width="6" d="M29.87 4.243L55.497 29.87 29.87 55.498 4.242 29.871z"/><path d="M27.696 29.948l29.68.221L30.19 59.524l-2.494-29.576z" fill="#FAFAFA"/><path fill="#1E2822" d="M29 25h31v5H29z"/></svg>