<svg width="152" height="125" fill="none" xmlns="http://www.w3.org/2000/svg"><path stroke="#121212" stroke-width="3" d="M1.5 1.5h148.766v104.467H1.5z"/><path stroke="#121212" stroke-width="3" d="M26.5 14.5h24v25h-24zm0 33h24v25h-24zm37-33h24v25h-24zm0 33h24v25h-24zm37-33h24v25h-24zm-42.395 92.006h35.557v16.689H58.105zm-18.728 16.689h73.833M3.281 81.356h145.204"/><circle cx="75.883" cy="93.931" r="5.153" stroke="#121212" stroke-width="2"/><path d="M111.5 65.35V60.6h-4.8v-2.8h4.8v-4.75h2.85v4.75h4.8v2.8h-4.8v4.75h-2.85z" fill="#000"/></svg>