<svg width="152" height="125" fill="none" xmlns="http://www.w3.org/2000/svg"><path stroke="#121212" stroke-width="3" d="M1.5 1.805h148.766v104.467H1.5zm56.605 105.006h35.557V123.5H58.105zM39.377 123.5h73.833M3.281 81.662h145.204"/><circle cx="75.883" cy="94.237" r="5.153" stroke="#121212" stroke-width="2"/><path d="M47.75 54l7.7-17.625h2.85L66 54h-3.25l-1.775-4.225H52.7L50.9 54h-3.15zm6.075-6.95h6.025l-3.025-7-3 7zM69.001 54V36.5h7.85c2.017 0 3.542.517 4.575 1.55.783.783 1.175 1.75 1.175 2.9V41c0 1.733-.833 3.033-2.5 3.9 1.133.4 1.992.925 2.575 1.575.6.65.9 1.542.9 2.675v.05c0 1.533-.583 2.717-1.75 3.55-1.167.833-2.742 1.25-4.725 1.25h-8.1zm10.525-12.5v-.05c0-.7-.267-1.242-.8-1.625-.517-.4-1.275-.6-2.275-.6h-4.425v4.65h4.2c1.033 0 1.842-.2 2.425-.6.583-.4.875-.992.875-1.775zm.975 7.375v-.05c0-1.567-1.2-2.35-3.6-2.35h-4.875v4.8h5.1c1.067 0 1.892-.2 2.475-.6.6-.417.9-1.017.9-1.8zM95.168 54.3c-2.533 0-4.65-.867-6.35-2.6-1.7-1.733-2.55-3.867-2.55-6.4v-.05c0-2.533.85-4.675 2.55-6.425 1.7-1.75 3.85-2.625 6.45-2.625 1.517 0 2.808.233 3.875.7 1.067.467 2.067 1.142 3 2.025l-1.975 2.275c-1.567-1.433-3.208-2.15-4.925-2.15-1.633 0-3 .6-4.1 1.8-1.1 1.183-1.65 2.633-1.65 4.35v.05c0 1.733.55 3.2 1.65 4.4 1.1 1.2 2.475 1.8 4.125 1.8 1 0 1.883-.183 2.65-.55.767-.367 1.558-.933 2.375-1.7l1.975 2c-.95 1.017-1.983 1.792-3.1 2.325-1.117.517-2.45.775-4 .775z" fill="#000"/></svg>