<svg width="152" height="125" fill="none" xmlns="http://www.w3.org/2000/svg"><path stroke="#121212" stroke-width="3" d="M1.5 1.805h148.766v104.467H1.5zm56.605 105.006h35.557V123.5H58.105zM39.377 123.5h73.833M3.281 81.662h145.204"/><circle cx="75.883" cy="94.237" r="5.153" stroke="#121212" stroke-width="2"/><circle cx="75.5" cy="45.5" r="18" stroke="#000" stroke-width="3"/><mask id="a" fill="#fff"><path d="M88.04 56.607a13.081 13.081 0 01-4.048-4.792 13.572 13.572 0 01-1.4-6.197 14.225 14.225 0 011.552-6.266 14.503 14.503 0 014.167-4.985l1.73 2.37a11.359 11.359 0 00-3.263 3.904 11.14 11.14 0 00-1.215 4.907 10.629 10.629 0 001.096 4.853 10.245 10.245 0 003.17 3.753l-1.788 2.453z"/></mask><path d="M88.04 56.607a13.081 13.081 0 01-4.048-4.792 13.572 13.572 0 01-1.4-6.197 14.225 14.225 0 011.552-6.266 14.503 14.503 0 014.167-4.985l1.73 2.37a11.359 11.359 0 00-3.263 3.904 11.14 11.14 0 00-1.215 4.907 10.629 10.629 0 001.096 4.853 10.245 10.245 0 003.17 3.753l-1.788 2.453z" fill="#fff" stroke="#000" stroke-width="6" mask="url(#a)"/><mask id="b" fill="#fff"><path d="M62.538 56.677a13.082 13.082 0 004.049-4.792 13.573 13.573 0 001.399-6.197 14.225 14.225 0 00-1.55-6.266 14.504 14.504 0 00-4.168-4.985l-1.73 2.37a11.36 11.36 0 013.263 3.904 11.14 11.14 0 011.215 4.907 10.629 10.629 0 01-1.096 4.853 10.244 10.244 0 01-3.17 3.754l1.788 2.452z"/></mask><path d="M62.538 56.677a13.082 13.082 0 004.049-4.792 13.573 13.573 0 001.399-6.197 14.225 14.225 0 00-1.55-6.266 14.504 14.504 0 00-4.168-4.985l-1.73 2.37a11.36 11.36 0 013.263 3.904 11.14 11.14 0 011.215 4.907 10.629 10.629 0 01-1.096 4.853 10.244 10.244 0 01-3.17 3.754l1.788 2.452z" fill="#fff" stroke="#000" stroke-width="6" mask="url(#b)"/></svg>