<svg width="165" height="22" fill="none" xmlns="http://www.w3.org/2000/svg"><path d="M0 .11l3 4.422V21.11H0v-21z" fill="#fff"/><path d="M19 21.11l-4-3H0v3h19zm127-21l3 4.422V21.11h-3v-21z" fill="#fff"/><path d="M165 21.11l-4-3h-15v3h19zm-141-6h13.778l2.222 3H24v-3z" fill="#fff"/><path d="M32 5.36l1-5.25 12 21h-3.5L32 5.36zm42 9.75h13.778l2.222 3H74v-3z" fill="#fff"/><path d="M82 5.36l1-5.25 12 21h-3.5L82 5.36zm18.5-2.25l-2.5-3h15c1.333.5 4 2.6 4 7s-2.667 6.5-4 7h-4l-4-3h7c.5-.332 1.6-1.6 2-4 .4-2.4-1.5-3.666-2.5-4h-11zm-1.5 8h4.148l11.352 10H110l-11-10zm26 7h12l3 3h-18l3-3zM122 .111h3v11h-3z" fill="#fff"/><path d="M122 8.11h11l-3 3h-8v-3zm0-8h19l-3.5 3H122v-3zm-71.898 2l3 4v15h-3v-19zm19.001 0l-3 4v15h3v-19z" fill="#fff"/><path d="M50.113 2.122L52.507.314l9.096 11.297h-4.5l-6.99-9.49z" fill="#fff"/><path d="M69.101 2.11l-2.876-2-8.122 11.5h4l6.998-9.5z" fill="#fff"/></svg>