<svg width="22" height="22" fill="none" xmlns="http://www.w3.org/2000/svg"><g clip-path="url(#clip0)" fill="#121212"><path d="M9.568 12.432c-1.981-1.98-2.429-3.962-2.53-4.756a.711.711 0 01.205-.595l1.603-1.603a.716.716 0 00.101-.886L6.394.63a.716.716 0 00-.927-.261L1.37 2.298a.712.712 0 00-.394.71c.215 2.04 1.104 7.055 6.032 11.984 4.928 4.928 9.942 5.817 11.983 6.032.296.03.58-.127.711-.394l1.93-4.098a.716.716 0 00-.26-.926l-3.963-2.552a.716.716 0 00-.886.1l-1.602 1.604a.711.711 0 01-.596.204c-.794-.101-2.775-.548-4.756-2.53z"/><path d="M17.435 11.364a.716.716 0 01-.716-.715 5.374 5.374 0 00-5.368-5.368.716.716 0 010-1.432 6.807 6.807 0 016.8 6.8c0 .395-.32.715-.716.715z"/><path d="M21.014 11.364a.716.716 0 01-.716-.715 8.957 8.957 0 00-8.947-8.947.716.716 0 010-1.432c5.73.007 10.372 4.65 10.379 10.379a.716.716 0 01-.716.715z"/></g><defs><clipPath id="clip0"><path fill="#fff" transform="translate(.973 .27)" d="M0 0h20.757v20.757H0z"/></clipPath></defs></svg>